# xmcd CD database file
#
# Track frame offsets:
#	150
#	18330
#	35301
#	52491
#	68016
#	84455
#	102503
#	117614
#	134871
#	150178
#	168976
#	184458
#	200167
#	213465
#	234464
#	249441
#
# Disc length: 3618 seconds
#
# Revision: 1
# Processed by: cddbd v1.5.2PL0 Copyright (c) Steve Scherf et al.
# Submitted via: CDex 1.51
#
DISCID=ec0e2010
DTITLE=V - R&B Collection
DYEAR=2004
DGENRE=R&B
TTITLE0=Hey Ya
TTITLE1=I Dun Want You Back
TTITLE2=If I Ain't Got You
TTITLE3=Bonnie and Clyde
TTITLE4=Pop Ya Coller
TTITLE5=Suga Suga
TTITLE6=Toxic
TTITLE7=Breathe
TTITLE8=No Letting Go
TTITLE9=Stole
TTITLE10=There You Go
TTITLE11=Foolish
TTITLE12=What Would You Do
TTITLE13=Waterfalls
TTITLE14=Case Of The Ex (Whatcha Gonna Do)
TTITLE15=Never Be The Same Again
EXTD=YEAR: 2004
EXTT0=
EXTT1=
EXTT2=
EXTT3=
EXTT4=
EXTT5=
EXTT6=
EXTT7=
EXTT8=
EXTT9=
EXTT10=
EXTT11=
EXTT12=
EXTT13=
EXTT14=
EXTT15=
PLAYORDER=
